<mxfile host="app.diagrams.net" modified="2021-08-22T17:29:40.052Z" agent="5.0 (Windows NT 10.0; Win64; x64) AppleWebKit/537.36 (KHTML, like Gecko) Chrome/92.0.4515.159 Safari/537.36" etag="brQ63FPrzwGJX0pabBQl" version="14.9.8" type="github">
  <diagram id="BBy-OMcrdtSTwKrhL1D4" name="Page-1">
    <mxGraphModel dx="716" dy="377" grid="1" gridSize="12" guides="1" tooltips="1" connect="1" arrows="1" fold="1" page="1" pageScale="1" pageWidth="827" pageHeight="1169" math="0" shadow="0">
      <root>
        <mxCell id="0" />
        <mxCell id="1" parent="0" />
        <mxCell id="gDtwogk-dKq6wkWjXrfd-1" value="" style="endArrow=classic;html=1;" edge="1" parent="1">
          <mxGeometry width="50" height="50" relative="1" as="geometry">
            <mxPoint x="400" y="320" as="sourcePoint" />
            <mxPoint x="790" y="320" as="targetPoint" />
          </mxGeometry>
        </mxCell>
        <mxCell id="gDtwogk-dKq6wkWjXrfd-2" value="" style="endArrow=classic;html=1;" edge="1" parent="1">
          <mxGeometry width="50" height="50" relative="1" as="geometry">
            <mxPoint x="400" y="320" as="sourcePoint" />
            <mxPoint x="400" y="40" as="targetPoint" />
          </mxGeometry>
        </mxCell>
        <mxCell id="gDtwogk-dKq6wkWjXrfd-3" value="" style="endArrow=none;html=1;" edge="1" parent="1">
          <mxGeometry width="50" height="50" relative="1" as="geometry">
            <mxPoint x="400" y="280" as="sourcePoint" />
            <mxPoint x="640" y="120" as="targetPoint" />
          </mxGeometry>
        </mxCell>
        <mxCell id="gDtwogk-dKq6wkWjXrfd-4" value="" style="endArrow=none;dashed=1;html=1;dashPattern=1 3;strokeWidth=2;" edge="1" parent="1">
          <mxGeometry width="50" height="50" relative="1" as="geometry">
            <mxPoint x="640" y="320" as="sourcePoint" />
            <mxPoint x="640" y="40" as="targetPoint" />
          </mxGeometry>
        </mxCell>
        <mxCell id="gDtwogk-dKq6wkWjXrfd-5" value="P&lt;sub&gt;L&lt;/sub&gt;" style="text;html=1;strokeColor=none;fillColor=none;align=center;verticalAlign=middle;whiteSpace=wrap;rounded=0;" vertex="1" parent="1">
          <mxGeometry x="350" y="270" width="40" height="20" as="geometry" />
        </mxCell>
        <mxCell id="gDtwogk-dKq6wkWjXrfd-7" value="P&lt;sub&gt;H&lt;/sub&gt;" style="text;html=1;strokeColor=none;fillColor=none;align=center;verticalAlign=middle;whiteSpace=wrap;rounded=0;" vertex="1" parent="1">
          <mxGeometry x="340" y="110" width="40" height="20" as="geometry" />
        </mxCell>
        <mxCell id="gDtwogk-dKq6wkWjXrfd-8" value="t&lt;sub&gt;P&lt;/sub&gt;&amp;nbsp;= 0.3*t&lt;sub&gt;c&lt;/sub&gt;" style="text;html=1;strokeColor=none;fillColor=none;align=center;verticalAlign=middle;whiteSpace=wrap;rounded=0;" vertex="1" parent="1">
          <mxGeometry x="490" y="330" width="90" height="20" as="geometry" />
        </mxCell>
        <mxCell id="gDtwogk-dKq6wkWjXrfd-10" value="&lt;b&gt;&lt;font style=&quot;font-size: 14px&quot;&gt;P&lt;/font&gt;&lt;/b&gt;" style="text;html=1;strokeColor=none;fillColor=none;align=center;verticalAlign=middle;whiteSpace=wrap;rounded=0;" vertex="1" parent="1">
          <mxGeometry x="350" y="10" width="40" height="20" as="geometry" />
        </mxCell>
        <mxCell id="gDtwogk-dKq6wkWjXrfd-11" value="&lt;b&gt;&lt;font face=&quot;Times New Roman&quot; style=&quot;font-size: 14px&quot;&gt;t&lt;/font&gt;&lt;/b&gt;" style="text;html=1;strokeColor=none;fillColor=none;align=center;verticalAlign=middle;whiteSpace=wrap;rounded=0;" vertex="1" parent="1">
          <mxGeometry x="770" y="330" width="40" height="20" as="geometry" />
        </mxCell>
        <mxCell id="gDtwogk-dKq6wkWjXrfd-12" value="" style="endArrow=classic;html=1;" edge="1" parent="1">
          <mxGeometry width="50" height="50" relative="1" as="geometry">
            <mxPoint x="80" y="800" as="sourcePoint" />
            <mxPoint x="470" y="800" as="targetPoint" />
          </mxGeometry>
        </mxCell>
        <mxCell id="gDtwogk-dKq6wkWjXrfd-13" value="" style="endArrow=classic;html=1;" edge="1" parent="1">
          <mxGeometry width="50" height="50" relative="1" as="geometry">
            <mxPoint x="80" y="800" as="sourcePoint" />
            <mxPoint x="80" y="520" as="targetPoint" />
          </mxGeometry>
        </mxCell>
        <mxCell id="gDtwogk-dKq6wkWjXrfd-15" value="" style="endArrow=none;dashed=1;html=1;dashPattern=1 3;strokeWidth=2;" edge="1" parent="1">
          <mxGeometry width="50" height="50" relative="1" as="geometry">
            <mxPoint x="160" y="800" as="sourcePoint" />
            <mxPoint x="160" y="520" as="targetPoint" />
          </mxGeometry>
        </mxCell>
        <mxCell id="gDtwogk-dKq6wkWjXrfd-17" value="P&lt;sub&gt;H&lt;/sub&gt;" style="text;html=1;strokeColor=none;fillColor=none;align=center;verticalAlign=middle;whiteSpace=wrap;rounded=0;" vertex="1" parent="1">
          <mxGeometry x="20" y="590" width="40" height="20" as="geometry" />
        </mxCell>
        <mxCell id="gDtwogk-dKq6wkWjXrfd-19" value="&lt;b&gt;&lt;font face=&quot;Times New Roman&quot; style=&quot;font-size: 14px&quot;&gt;t&lt;/font&gt;&lt;/b&gt;" style="text;html=1;strokeColor=none;fillColor=none;align=center;verticalAlign=middle;whiteSpace=wrap;rounded=0;" vertex="1" parent="1">
          <mxGeometry x="450" y="810" width="40" height="20" as="geometry" />
        </mxCell>
        <mxCell id="gDtwogk-dKq6wkWjXrfd-20" value="" style="endArrow=none;dashed=1;html=1;dashPattern=1 3;strokeWidth=2;" edge="1" parent="1">
          <mxGeometry width="50" height="50" relative="1" as="geometry">
            <mxPoint x="320" y="800" as="sourcePoint" />
            <mxPoint x="320" y="520" as="targetPoint" />
          </mxGeometry>
        </mxCell>
        <mxCell id="gDtwogk-dKq6wkWjXrfd-21" value="" style="endArrow=none;html=1;" edge="1" parent="1">
          <mxGeometry width="50" height="50" relative="1" as="geometry">
            <mxPoint x="160" y="599.5" as="sourcePoint" />
            <mxPoint x="320" y="599.5" as="targetPoint" />
          </mxGeometry>
        </mxCell>
        <mxCell id="gDtwogk-dKq6wkWjXrfd-22" value="t&lt;sub&gt;A&lt;/sub&gt;&amp;nbsp;= 0.2*t&lt;sub&gt;c&lt;/sub&gt;" style="text;html=1;strokeColor=none;fillColor=none;align=center;verticalAlign=middle;whiteSpace=wrap;rounded=0;" vertex="1" parent="1">
          <mxGeometry x="200" y="810" width="90" height="20" as="geometry" />
        </mxCell>
        <mxCell id="gDtwogk-dKq6wkWjXrfd-23" value="&lt;span style=&quot;font-family: &amp;#34;times new roman&amp;#34; ; font-size: 15px&quot;&gt;Adsorption&lt;/span&gt;" style="text;html=1;strokeColor=none;fillColor=none;align=center;verticalAlign=middle;whiteSpace=wrap;rounded=0;" vertex="1" parent="1">
          <mxGeometry x="220" y="530" width="40" height="20" as="geometry" />
        </mxCell>
        <mxCell id="gDtwogk-dKq6wkWjXrfd-24" value="&lt;span lang=&quot;EN&quot; style=&quot;line-height: 200% ; font-family: &amp;#34;times new roman&amp;#34; , serif&quot;&gt;&lt;font style=&quot;font-size: 15px&quot;&gt;Pressurization&lt;/font&gt;&lt;/span&gt;" style="text;html=1;strokeColor=none;fillColor=none;align=center;verticalAlign=middle;whiteSpace=wrap;rounded=0;" vertex="1" parent="1">
          <mxGeometry x="480" y="90" width="40" height="20" as="geometry" />
        </mxCell>
        <mxCell id="gDtwogk-dKq6wkWjXrfd-36" value="" style="endArrow=classic;html=1;" edge="1" parent="1">
          <mxGeometry width="50" height="50" relative="1" as="geometry">
            <mxPoint x="240" y="1258" as="sourcePoint" />
            <mxPoint x="630" y="1258" as="targetPoint" />
          </mxGeometry>
        </mxCell>
        <mxCell id="gDtwogk-dKq6wkWjXrfd-37" value="" style="endArrow=classic;html=1;" edge="1" parent="1">
          <mxGeometry width="50" height="50" relative="1" as="geometry">
            <mxPoint x="240" y="1258" as="sourcePoint" />
            <mxPoint x="240" y="978" as="targetPoint" />
          </mxGeometry>
        </mxCell>
        <mxCell id="gDtwogk-dKq6wkWjXrfd-39" value="" style="endArrow=none;dashed=1;html=1;dashPattern=1 3;strokeWidth=2;" edge="1" parent="1">
          <mxGeometry width="50" height="50" relative="1" as="geometry">
            <mxPoint x="330" y="1260" as="sourcePoint" />
            <mxPoint x="330" y="972" as="targetPoint" />
          </mxGeometry>
        </mxCell>
        <mxCell id="gDtwogk-dKq6wkWjXrfd-40" value="P&lt;sub&gt;L&lt;/sub&gt;" style="text;html=1;strokeColor=none;fillColor=none;align=center;verticalAlign=middle;whiteSpace=wrap;rounded=0;" vertex="1" parent="1">
          <mxGeometry x="190" y="1224" width="40" height="20" as="geometry" />
        </mxCell>
        <mxCell id="gDtwogk-dKq6wkWjXrfd-41" value="P&lt;sub&gt;H&lt;/sub&gt;" style="text;html=1;strokeColor=none;fillColor=none;align=center;verticalAlign=middle;whiteSpace=wrap;rounded=0;" vertex="1" parent="1">
          <mxGeometry x="180" y="1048" width="40" height="20" as="geometry" />
        </mxCell>
        <mxCell id="gDtwogk-dKq6wkWjXrfd-42" value="t&lt;sub&gt;B&lt;/sub&gt;&amp;nbsp;= 0.3*t&lt;sub&gt;c&lt;/sub&gt;" style="text;html=1;strokeColor=none;fillColor=none;align=center;verticalAlign=middle;whiteSpace=wrap;rounded=0;" vertex="1" parent="1">
          <mxGeometry x="371" y="1268" width="90" height="20" as="geometry" />
        </mxCell>
        <mxCell id="gDtwogk-dKq6wkWjXrfd-43" value="&lt;b&gt;&lt;font style=&quot;font-size: 14px&quot;&gt;P&lt;/font&gt;&lt;/b&gt;" style="text;html=1;strokeColor=none;fillColor=none;align=center;verticalAlign=middle;whiteSpace=wrap;rounded=0;" vertex="1" parent="1">
          <mxGeometry x="190" y="948" width="40" height="20" as="geometry" />
        </mxCell>
        <mxCell id="gDtwogk-dKq6wkWjXrfd-44" value="&lt;b&gt;&lt;font face=&quot;Times New Roman&quot; style=&quot;font-size: 14px&quot;&gt;t&lt;/font&gt;&lt;/b&gt;" style="text;html=1;strokeColor=none;fillColor=none;align=center;verticalAlign=middle;whiteSpace=wrap;rounded=0;" vertex="1" parent="1">
          <mxGeometry x="610" y="1268" width="40" height="20" as="geometry" />
        </mxCell>
        <mxCell id="gDtwogk-dKq6wkWjXrfd-46" value="" style="endArrow=none;dashed=1;html=1;dashPattern=1 3;strokeWidth=2;" edge="1" parent="1">
          <mxGeometry width="50" height="50" relative="1" as="geometry">
            <mxPoint x="504.20000000000005" y="1264" as="sourcePoint" />
            <mxPoint x="504" y="984" as="targetPoint" />
          </mxGeometry>
        </mxCell>
        <mxCell id="gDtwogk-dKq6wkWjXrfd-47" value="" style="endArrow=none;html=1;" edge="1" parent="1">
          <mxGeometry width="50" height="50" relative="1" as="geometry">
            <mxPoint x="504" y="1260" as="sourcePoint" />
            <mxPoint x="330" y="1056" as="targetPoint" />
          </mxGeometry>
        </mxCell>
        <mxCell id="gDtwogk-dKq6wkWjXrfd-50" value="" style="endArrow=none;dashed=1;html=1;dashPattern=1 3;strokeWidth=2;" edge="1" parent="1">
          <mxGeometry width="50" height="50" relative="1" as="geometry">
            <mxPoint x="238" y="1232" as="sourcePoint" />
            <mxPoint x="502" y="1232" as="targetPoint" />
          </mxGeometry>
        </mxCell>
        <mxCell id="gDtwogk-dKq6wkWjXrfd-51" value="&lt;span style=&quot;font-family: &amp;#34;times new roman&amp;#34; ; font-size: 15px&quot;&gt;Blowdown&lt;/span&gt;" style="text;html=1;strokeColor=none;fillColor=none;align=center;verticalAlign=middle;whiteSpace=wrap;rounded=0;" vertex="1" parent="1">
          <mxGeometry x="396" y="1008" width="40" height="20" as="geometry" />
        </mxCell>
        <mxCell id="gDtwogk-dKq6wkWjXrfd-52" value="" style="endArrow=classic;html=1;" edge="1" parent="1">
          <mxGeometry width="50" height="50" relative="1" as="geometry">
            <mxPoint x="65" y="1659.9999999999998" as="sourcePoint" />
            <mxPoint x="455" y="1659.9999999999998" as="targetPoint" />
          </mxGeometry>
        </mxCell>
        <mxCell id="gDtwogk-dKq6wkWjXrfd-53" value="" style="endArrow=classic;html=1;" edge="1" parent="1">
          <mxGeometry width="50" height="50" relative="1" as="geometry">
            <mxPoint x="65" y="1659.9999999999998" as="sourcePoint" />
            <mxPoint x="65" y="1380" as="targetPoint" />
          </mxGeometry>
        </mxCell>
        <mxCell id="gDtwogk-dKq6wkWjXrfd-54" value="" style="endArrow=none;dashed=1;html=1;dashPattern=1 3;strokeWidth=2;" edge="1" parent="1">
          <mxGeometry width="50" height="50" relative="1" as="geometry">
            <mxPoint x="145" y="1659.9999999999998" as="sourcePoint" />
            <mxPoint x="145" y="1380" as="targetPoint" />
          </mxGeometry>
        </mxCell>
        <mxCell id="gDtwogk-dKq6wkWjXrfd-55" value="P&lt;sub&gt;H&lt;/sub&gt;" style="text;html=1;strokeColor=none;fillColor=none;align=center;verticalAlign=middle;whiteSpace=wrap;rounded=0;" vertex="1" parent="1">
          <mxGeometry x="5" y="1450" width="40" height="20" as="geometry" />
        </mxCell>
        <mxCell id="gDtwogk-dKq6wkWjXrfd-56" value="&lt;b&gt;&lt;font face=&quot;Times New Roman&quot; style=&quot;font-size: 14px&quot;&gt;t&lt;/font&gt;&lt;/b&gt;" style="text;html=1;strokeColor=none;fillColor=none;align=center;verticalAlign=middle;whiteSpace=wrap;rounded=0;" vertex="1" parent="1">
          <mxGeometry x="435" y="1670" width="40" height="20" as="geometry" />
        </mxCell>
        <mxCell id="gDtwogk-dKq6wkWjXrfd-57" value="" style="endArrow=none;dashed=1;html=1;dashPattern=1 3;strokeWidth=2;" edge="1" parent="1">
          <mxGeometry width="50" height="50" relative="1" as="geometry">
            <mxPoint x="312" y="1659.9999999999998" as="sourcePoint" />
            <mxPoint x="312" y="1380" as="targetPoint" />
          </mxGeometry>
        </mxCell>
        <mxCell id="gDtwogk-dKq6wkWjXrfd-59" value="t&lt;sub&gt;P&lt;/sub&gt;&amp;nbsp;= 0.2*t&lt;sub&gt;c&lt;/sub&gt;" style="text;html=1;strokeColor=none;fillColor=none;align=center;verticalAlign=middle;whiteSpace=wrap;rounded=0;" vertex="1" parent="1">
          <mxGeometry x="185" y="1670" width="90" height="20" as="geometry" />
        </mxCell>
        <mxCell id="gDtwogk-dKq6wkWjXrfd-60" value="&lt;span style=&quot;font-family: &amp;#34;times new roman&amp;#34; ; font-size: 15px&quot;&gt;Purge&lt;/span&gt;" style="text;html=1;strokeColor=none;fillColor=none;align=center;verticalAlign=middle;whiteSpace=wrap;rounded=0;" vertex="1" parent="1">
          <mxGeometry x="205" y="1390" width="40" height="20" as="geometry" />
        </mxCell>
        <mxCell id="gDtwogk-dKq6wkWjXrfd-61" value="P&lt;span style=&quot;font-size: 10px&quot;&gt;L&lt;/span&gt;" style="text;html=1;strokeColor=none;fillColor=none;align=center;verticalAlign=middle;whiteSpace=wrap;rounded=0;" vertex="1" parent="1">
          <mxGeometry x="12" y="1620" width="40" height="20" as="geometry" />
        </mxCell>
        <mxCell id="gDtwogk-dKq6wkWjXrfd-64" value="" style="endArrow=none;html=1;" edge="1" parent="1">
          <mxGeometry width="50" height="50" relative="1" as="geometry">
            <mxPoint x="144" y="1658" as="sourcePoint" />
            <mxPoint x="168" y="1632" as="targetPoint" />
          </mxGeometry>
        </mxCell>
        <mxCell id="gDtwogk-dKq6wkWjXrfd-66" value="" style="endArrow=none;html=1;" edge="1" parent="1">
          <mxGeometry width="50" height="50" relative="1" as="geometry">
            <mxPoint x="168" y="1632" as="sourcePoint" />
            <mxPoint x="312" y="1632" as="targetPoint" />
          </mxGeometry>
        </mxCell>
      </root>
    </mxGraphModel>
  </diagram>
</mxfile>
